<svg width="24" height="24" viewBox="0 0 24 24" fill="none" xmlns="http://www.w3.org/2000/svg">
<g clip-path="url(#clip0_8014_2261)">
<path fill-rule="evenodd" clip-rule="evenodd" d="M5.3439 12C5.3439 11.4477 5.79162 11 6.3439 11L11.0008 11L11.0008 6.34315C11.0008 5.79086 11.4485 5.34315 12.0008 5.34315C12.553 5.34315 13.0008 5.79086 13.0008 6.34315L13.0008 11H17.6576C18.2099 11 18.6576 11.4477 18.6576 12C18.6576 12.5523 18.2099 13 17.6576 13H13.0008L13.0008 17.6569C13.0008 18.2091 12.553 18.6569 12.0008 18.6569C11.4485 18.6569 11.0008 18.2091 11.0008 17.6569L11.0008 13L6.3439 13C5.79162 13 5.3439 12.5523 5.3439 12Z" fill="#070F16" fill-opacity="0.82"/>
</g>
<defs>
<clipPath id="clip0_8014_2261">
<rect width="24" height="24" fill="white"/>
</clipPath>
</defs>
</svg>
