<svg width="24" height="24" viewBox="0 0 24 24" fill="none" xmlns="http://www.w3.org/2000/svg">
<g clip-path="url(#clip0_8014_2234)">
<path fill-rule="evenodd" clip-rule="evenodd" d="M12 4C7.58172 4 4 7.58172 4 12C4 16.4183 7.58172 20 12 20C16.4183 20 20 16.4183 20 12C20 7.58172 16.4183 4 12 4ZM2 12C2 6.47715 6.47715 2 12 2C17.5228 2 22 6.47715 22 12C22 17.5228 17.5228 22 12 22C6.47715 22 2 17.5228 2 12ZM12 7.4C12.5523 7.4 13 7.84772 13 8.4V12C13 12.5523 12.5523 13 12 13C11.4477 13 11 12.5523 11 12V8.4C11 7.84772 11.4477 7.4 12 7.4ZM11 15.6C11 15.0477 11.4477 14.6 12 14.6H12.009C12.5613 14.6 13.009 15.0477 13.009 15.6C13.009 16.1523 12.5613 16.6 12.009 16.6H12C11.4477 16.6 11 16.1523 11 15.6Z" fill="#070F16" fill-opacity="0.82"/>
</g>
<defs>
<clipPath id="clip0_8014_2234">
<rect width="24" height="24" fill="white"/>
</clipPath>
</defs>
</svg>
